<?xml version="1.0" encoding="UTF-8"?>
<svg id="Layer_2" data-name="Layer 2" xmlns="http://www.w3.org/2000/svg" xmlns:xlink="http://www.w3.org/1999/xlink" viewBox="0 0 136.08 41.58">
  <defs>
    <style>
      .cls-1, .cls-2 {
        fill: none;
      }

      .cls-3 {
        fill: url(#linear-gradient);
      }

      .cls-4 {
        clip-path: url(#clippath);
      }

      .cls-5 {
        fill: #fff;
      }

      .cls-6 {
        fill: #a57dfa;
      }

      .cls-7 {
        fill: url(#linear-gradient-2);
      }

      .cls-2 {
        stroke: #e0e0e0;
      }
    </style>
    <clipPath id="clippath">
      <rect class="cls-1" x="91.93" y="4.58" width="33.52" height="33.07"/>
    </clipPath>
    <linearGradient id="linear-gradient" x1="108.32" y1="33.86" x2="108.38" y2="12.74" gradientTransform="translate(0 38.44) scale(1 -1)" gradientUnits="userSpaceOnUse">
      <stop offset="0" stop-color="#460dc0"/>
      <stop offset="1" stop-color="#8a53ff"/>
    </linearGradient>
    <linearGradient id="linear-gradient-2" x1="124.54" y1="23.35" x2="96.8" y2="2.4" gradientTransform="translate(0 38.44) scale(1 -1)" gradientUnits="userSpaceOnUse">
      <stop offset="0" stop-color="#a57dfa"/>
      <stop offset="1" stop-color="#8b54ff"/>
    </linearGradient>
  </defs>
  <g id="Layer_1-2" data-name="Layer 1">
    <g>
      <path class="cls-5" d="M7.3,.24h121.48c3.76,0,6.8,3.1,6.8,6.92v26.75c0,3.82-3.04,6.92-6.8,6.92H7.3c-3.76,0-6.8-3.1-6.8-6.92V7.16C.5,3.34,3.54,.24,7.3,.24Z"/>
      <path class="cls-2" d="M7.3,.5h121.48c3.76,0,6.8,3.1,6.8,6.92v26.75c0,3.82-3.04,6.92-6.8,6.92H7.3c-3.76,0-6.8-3.1-6.8-6.92V7.42C.5,3.6,3.54,.5,7.3,.5Z"/>
      <path d="M43.46,11.35c-.02,.42-.1,.8-.24,1.14-.14,.34-.33,.63-.57,.87-.24,.24-.53,.42-.88,.55-.34,.13-.73,.19-1.16,.19h-.65v-1.03h.65c.31,0,.58-.03,.81-.1,.23-.07,.42-.17,.57-.32,.15-.14,.26-.33,.33-.56,.07-.23,.11-.51,.11-.84v-2.94h1.03v3.04Zm-1.32-5.08l.78-.79,.8,.8-.79,.79-.79-.8Zm3.53,5.3h-1.03V4.78h1.03v6.8Zm6.83,.04c-.19,0-.38,0-.56-.03-.09,0-.19-.02-.3-.04-.11-.02-.22-.04-.33-.07-.11-.03-.22-.06-.33-.1-.11-.04-.22-.09-.32-.15l-.45-.25,.51-.9,.45,.25c.11,.06,.24,.11,.39,.15,.16,.04,.32,.06,.5,.08,.14,.01,.29,.02,.44,.02h.2c.1,0,.23-.02,.38-.04,.2-.03,.35-.07,.45-.12,.1-.05,.16-.1,.17-.14,0-.02,.01-.04,.01-.07,0-.04-.01-.1-.03-.18-.02-.08-.09-.21-.2-.38-.3-.46-.55-.82-.73-1.11-.19-.29-.34-.51-.44-.67-.11-.16-.18-.27-.22-.33-.04-.06-.06-.09-.06-.09l-.28-.43,.86-.57,.28,.43,.06,.09c.04,.06,.11,.17,.22,.33,.11,.16,.25,.38,.44,.67,.19,.29,.43,.66,.74,1.11,.18,.27,.3,.53,.36,.78,.03,.12,.04,.24,.04,.35,0,.17-.03,.34-.1,.49-.11,.25-.3,.45-.56,.59-.23,.13-.51,.22-.85,.26-.12,.02-.24,.03-.36,.04-.12,0-.25,.01-.38,.01Zm3.57,1.46c.49,0,.89-.03,1.2-.1,.31-.07,.56-.18,.73-.33,.07-.06,.14-.12,.19-.19,.06-.07,.1-.14,.14-.23,.04-.08,.07-.18,.08-.29,.02-.1,.03-.22,.04-.36h-.8c-.23,0-.46-.03-.7-.09-.23-.07-.44-.17-.64-.33-.19-.15-.34-.35-.47-.6-.12-.25-.18-.55-.18-.92,0-.21,.02-.41,.05-.58,.04-.17,.08-.32,.14-.45,.06-.14,.12-.25,.19-.35,.07-.1,.14-.18,.2-.25,.18-.18,.38-.32,.61-.41,.23-.1,.48-.15,.75-.15,.23,0,.45,.04,.65,.11,.2,.07,.39,.18,.55,.33,.22,.2,.38,.46,.49,.77,.11,.31,.17,.68,.17,1.12v.78h.86v1.03h-.86c0,.43-.08,.8-.22,1.1-.14,.3-.34,.56-.61,.78-.14,.11-.3,.21-.47,.29-.17,.08-.36,.15-.57,.21-.21,.05-.44,.09-.7,.12-.25,.03-.53,.04-.84,.04v-1.03Zm1.55-4.6c-.29,0-.51,.1-.67,.3-.16,.2-.24,.49-.24,.86,0,.19,.03,.34,.08,.46,.06,.12,.14,.21,.25,.28,.05,.03,.11,.06,.17,.08,.06,.02,.12,.03,.18,.05,.06,.01,.11,.02,.15,.03,.05,0,.08,0,.11,0h.8v-.78c0-.22-.02-.4-.05-.55-.03-.15-.07-.27-.12-.37-.05-.09-.11-.17-.17-.22-.06-.05-.12-.09-.18-.11-.06-.02-.12-.03-.17-.04-.05,0-.1,0-.13,0Zm4.64,2.07c.08,0,.12,.04,.12,.11v.81c0,.08-.04,.12-.12,.12h-2.02c-.08,0-.12-.04-.12-.12v-.81c0-.07,.04-.11,.12-.11h2.02Zm-.09,0c.33,0,.58-.03,.76-.08,.18-.06,.31-.13,.4-.21,.08-.08,.13-.18,.14-.28,.02-.1,.02-.2,.02-.3V4.77h1.03v4.9c0,.11,.02,.22,.05,.33,.03,.1,.08,.19,.15,.27,.07,.08,.15,.14,.25,.19,.1,.05,.21,.08,.34,.08h.12v1.03h-.12c-.16,0-.29-.02-.41-.04-.11-.03-.22-.06-.32-.11-.09-.05-.19-.11-.28-.18-.09-.07-.19-.15-.3-.24-.09,.09-.2,.17-.32,.25-.12,.07-.25,.13-.4,.18-.15,.05-.31,.08-.5,.11-.18,.03-.38,.04-.61,.04v-1.03Zm5.71-2.89s.02,.07,.04,.16c.02,.08,.04,.18,.07,.31,.03,.12,.06,.26,.08,.41,.03,.15,.05,.3,.08,.45,.02,.15,.05,.29,.06,.43,.02,.14,.02,.26,.02,.36,0,.31-.05,.58-.16,.81-.1,.23-.24,.42-.41,.57-.16,.15-.35,.26-.56,.33-.21,.07-.41,.11-.62,.11h-1.27v-1.03h1.31s.1,0,.18-.02c.08-.01,.16-.04,.24-.09,.08-.05,.15-.13,.2-.24,.06-.1,.09-.25,.09-.43,0-.07,0-.16-.02-.26-.01-.1-.03-.22-.05-.33-.02-.12-.04-.24-.07-.37-.03-.13-.05-.24-.08-.35-.02-.11-.04-.21-.07-.3-.02-.09-.04-.16-.05-.2l.98-.3Zm-1.6-1.93l.78-.79,.8,.8-.79,.79-.79-.8Zm4.18,5.85h-1.03V4.78h1.03v6.8Zm3.55,.04c-.19,0-.38,0-.56-.03-.09,0-.19-.02-.3-.04s-.22-.04-.33-.07c-.11-.03-.22-.06-.33-.1-.11-.04-.22-.09-.32-.15l-.45-.25,.51-.9,.45,.25c.11,.06,.24,.11,.39,.15,.16,.04,.32,.06,.5,.08,.14,.01,.29,.02,.44,.02h.2c.1,0,.23-.02,.38-.04,.2-.03,.35-.07,.45-.12,.1-.05,.16-.1,.17-.14,0-.02,.01-.04,.01-.07,0-.04-.01-.1-.03-.18-.02-.08-.09-.21-.2-.38-.3-.46-.55-.82-.74-1.11-.19-.29-.34-.51-.44-.67-.11-.16-.18-.27-.22-.33-.04-.06-.06-.09-.06-.09l-.28-.43,.86-.57,.28,.43,.06,.09c.04,.06,.11,.17,.22,.33,.11,.16,.25,.38,.44,.67,.19,.29,.43,.66,.73,1.11,.18,.27,.3,.53,.36,.78,.03,.12,.04,.24,.04,.35,0,.17-.03,.34-.1,.49-.11,.25-.3,.45-.56,.59-.23,.13-.51,.22-.85,.26-.12,.02-.24,.03-.36,.04-.12,0-.25,.01-.38,.01Z"/>
      <path d="M24.35,32.23c-.03,.62-.14,1.18-.34,1.67-.2,.5-.48,.92-.84,1.27-.35,.35-.78,.62-1.29,.81-.5,.19-1.07,.28-1.7,.28h-.84v-1.68h.84c.43,0,.8-.04,1.12-.13,.31-.09,.57-.23,.77-.43s.35-.46,.45-.77c.1-.31,.15-.7,.15-1.15v-4.1h1.68v4.24Zm4.98,.41c-.49,0-.92-.03-1.27-.09-.35-.06-.65-.15-.9-.26-.24-.12-.44-.27-.59-.46-.14-.18-.25-.4-.33-.65-.08-.25-.13-.53-.15-.83-.02-.31-.03-.66-.03-1.04v-6.38h1.68v6.38c0,.36,.01,.65,.03,.86,.03,.22,.09,.38,.2,.51,.11,.12,.27,.2,.48,.24,.22,.04,.51,.05,.89,.05v1.68Zm2.67-1.68c.09,0,.16,.02,.2,.07,.05,.04,.07,.11,.07,.18v1.15c0,.1-.02,.17-.07,.21-.04,.04-.11,.06-.2,.06h-2.81c-.1,0-.17-.02-.21-.06-.04-.04-.06-.11-.06-.21v-1.15c0-.08,.02-.14,.06-.18,.04-.05,.11-.07,.21-.07h2.81Zm2.79,0c.09,0,.16,.02,.2,.07,.05,.04,.07,.11,.07,.18v1.15c0,.1-.02,.17-.07,.21-.04,.04-.11,.06-.2,.06h-2.81c-.1,0-.17-.02-.21-.06-.04-.04-.06-.11-.06-.21v-1.15c0-.08,.02-.14,.06-.18,.04-.05,.11-.07,.21-.07h2.81Zm7.08,0v1.68h-1c-.38,0-.73-.05-1.04-.15-.31-.1-.58-.26-.79-.46-.25,.21-.55,.37-.9,.46-.34,.1-.73,.15-1.17,.15h-2.33v-1.68h2.33c.27,0,.49-.02,.65-.07,.17-.05,.29-.12,.37-.2,.09-.08,.14-.16,.16-.26,.03-.09,.04-.19,.04-.28v-2.18h1.67v2.13c0,.2,.04,.36,.13,.48,.09,.11,.19,.2,.3,.26,.12,.05,.23,.09,.34,.1,.11,0,.19,.01,.23,.01h1Zm-2.28-4.72l-1.13-1.14,1.12-1.16,1.16,1.16-1.14,1.14Zm-2.82,0l-1.13-1.14,1.11-1.16,1.16,1.16-1.14,1.14Zm10.05,6.38c-.82,0-1.47-.21-1.95-.64-.25,.23-.52,.4-.82,.5-.3,.1-.61,.15-.93,.15h-1.52v-1.68h1.52c.05,0,.13,0,.23-.03,.1-.02,.2-.06,.3-.13,.1-.07,.19-.18,.27-.31,.08-.14,.11-.33,.11-.57v-1.94h1.68v1.91c0,.37,.09,.64,.26,.81,.17,.17,.46,.25,.86,.25,.05,0,.13,0,.23-.03,.1-.02,.2-.07,.3-.14,.1-.07,.19-.18,.27-.32,.08-.14,.11-.33,.11-.57v-1.91h1.67v1.91c0,.37,.09,.64,.26,.81,.18,.17,.47,.26,.87,.26,.06,0,.14-.01,.24-.03,.1-.03,.2-.08,.3-.15,.1-.08,.18-.18,.26-.32,.07-.14,.11-.33,.11-.57,0-.1,0-.22-.03-.36-.01-.14-.03-.29-.06-.44-.02-.16-.05-.31-.08-.47-.03-.16-.06-.31-.09-.46-.03-.14-.06-.27-.09-.39-.03-.12-.05-.21-.07-.28l1.58-.52s.03,.1,.05,.22c.03,.11,.06,.25,.09,.42,.04,.17,.08,.35,.12,.55,.04,.2,.08,.41,.11,.61,.04,.2,.07,.4,.09,.6,.02,.19,.03,.36,.03,.51,0,.46-.08,.86-.23,1.21-.15,.34-.34,.63-.59,.86-.24,.22-.52,.39-.82,.51-.31,.11-.61,.17-.92,.18-.84,0-1.5-.22-1.98-.66-.25,.23-.52,.4-.82,.5-.3,.1-.6,.15-.92,.15Zm9.87,.01h-1.68v-9.71h1.68v9.71Zm4.36,0c-.33,0-.65-.06-.94-.17-.3-.11-.56-.28-.79-.49-.09-.09-.18-.19-.28-.31-.09-.12-.18-.26-.26-.43-.08-.17-.14-.35-.19-.56-.05-.21-.07-.45-.07-.71,0-.22,.02-.47,.07-.73,.04-.26,.09-.51,.15-.75,.06-.23,.11-.44,.16-.61,.05-.17,.08-.28,.09-.32l.8,.26,.79,.25c-.04,.12-.08,.27-.13,.44-.04,.17-.09,.34-.13,.52-.04,.18-.07,.35-.1,.51-.03,.17-.04,.31-.04,.43,0,.22,.03,.39,.09,.53,.06,.13,.14,.23,.22,.3,.09,.07,.18,.11,.26,.13,.08,.02,.19,.03,.3,.03h8.03c.05,0,.13,0,.23-.02,.1-.02,.2-.06,.3-.13,.1-.07,.19-.17,.27-.3,.08-.14,.11-.33,.11-.57,0-.1,0-.22-.03-.36-.01-.14-.03-.3-.06-.46-.03-.16-.06-.33-.09-.49-.03-.17-.06-.33-.09-.48-.01-.06-.02-.11-.03-.17l1.59-.42s0,.04,.01,.06c.04,.17,.07,.36,.11,.57,.04,.21,.08,.42,.11,.63,.04,.21,.06,.41,.08,.61,.02,.2,.03,.37,.03,.52,0,.46-.08,.86-.23,1.21-.15,.34-.35,.62-.6,.84-.25,.22-.53,.38-.83,.49-.31,.11-.61,.16-.92,.16h-7.99Zm1.65,2.2l1.14-1.14,1.14,1.16-1.14,1.14-1.14-1.16Zm2.81,.01l1.16-1.14,1.14,1.16-1.14,1.14-1.16-1.16Zm-1.34,1.89l1.06-1.06,1.08,1.08-1.06,1.06-1.08-1.08Zm10.86-4.1h-1.68v-9.71h1.68v9.71Z"/>
      <g class="cls-4">
        <g>
          <path class="cls-6" d="M121.1,22.2h-24.82c-2.4,0-4.35-1.97-4.35-4.4s1.95-4.4,4.35-4.4h24.82c2.4,0,4.35,1.97,4.35,4.4s-1.95,4.4-4.35,4.4Z"/>
          <path class="cls-3" d="M120.64,31.72l-7.24-24.02c-.34-1.14-1.1-2.03-2.06-2.57-.02,0-.03-.02-.05-.03-.04-.02-.08-.04-.12-.06-.02-.01-.05-.03-.08-.04-.04-.02-.07-.03-.11-.05-.03-.01-.06-.03-.09-.04-.06-.03-.12-.05-.18-.07,0,0-.01,0-.02,0-.07-.03-.14-.05-.21-.07,0,0-.01,0-.02,0-.07-.02-.13-.04-.2-.06h0c-.75-.19-1.55-.18-2.34,.06-1.4,.42-2.43,1.48-2.88,2.75,0,.02-.01,.03-.02,.04l-8.77,24.1c-.85,2.33,.31,4.9,2.59,5.72,2.28,.83,4.82-.39,5.67-2.72l4.28-11.76,3.42,11.35c.7,2.32,3.15,3.64,5.48,2.94,2.32-.7,3.64-3.15,2.94-5.48Z"/>
          <path class="cls-7" d="M123.63,21.37l-20.55,15.36c-1.99,1.49-4.78,1.11-6.23-.83-1.45-1.94-1.02-4.73,.97-6.21l20.55-15.36c1.99-1.49,4.78-1.11,6.23,.83,1.45,1.94,1.02,4.73-.97,6.21Z"/>
        </g>
      </g>
    </g>
  </g>
</svg>