<svg width="2816" height="8941" viewBox="0 0 2816 8941" fill="none" xmlns="http://www.w3.org/2000/svg">
<path d="M2815 1L2132.13 381.345C2025.18 440.918 2003.95 585.791 2089.32 673.542L2408.43 1001.54C2529.37 1125.85 2429.38 1333.42 2256.79 1316.33L599.512 1152.26C514.813 1143.87 435.227 1194.05 406.277 1274.09L165.978 1938.44C126.449 2047.73 195.706 2166.1 310.344 2185.18L1248.13 2341.3C1453.29 2375.46 1456.26 2669.31 1251.82 2707.6L906.782 2772.22C749.008 2801.77 700.239 3003.88 827.174 3102.13L1719.4 3792.73C1845.11 3890.04 1798.72 4090 1643 4122.01L721.194 4311.51C556.499 4345.37 517.689 4563.02 660.531 4651.72L2497.15 5792.13C2601.79 5857.1 2615.52 6004 2524.74 6087.24L734.812 7728.47C650.785 7805.51 517.851 7789.53 454.486 7694.75L32.3259 7063.36C-51.9409 6937.33 41.8789 6768.83 193.396 6774.09L2503.13 6854.2C2658.4 6859.59 2739.03 7041.69 2638.64 7160.27L1131.5 8940.5" stroke="url(#paint0_linear_8_2)"/>
<defs>
<linearGradient id="paint0_linear_8_2" x1="1358.5" y1="1" x2="1358.5" y2="8940.5" gradientUnits="userSpaceOnUse">
<stop stop-color="#424040"/>
<stop offset="1" stop-color="#A8A4A4"/>
</linearGradient>
</defs>
</svg>
